<svg width="16" height="16" viewBox="0 0 16 16" fill="none" xmlns="http://www.w3.org/2000/svg">
<g clip-path="url(#clip0_389_9359)">
<circle cx="8" cy="8" r="8" fill="black"/>
<path d="M7.74477 9.39827C7.7403 8.35541 7.74492 8.17543 7.74492 8.17543L7.74153 7.97186L5.14706 12.1221C5.54698 12.7642 6.16183 13.7021 8.20073 14.3138C10.2396 14.9255 11.3854 14.2517 11.361 12.9057C11.3435 11.9363 10.3863 11.4649 9.19055 11.3968C8.40416 11.352 7.74923 10.4411 7.74477 9.39827Z" fill="#2A9A48"/>
<path d="M4.66865 10.4206C4.68231 11.2221 5.02156 11.9311 5.18519 12.1858C5.7311 12.9316 7.11725 9.80695 7.74356 8.14769L7.74579 3.35406L4.67035 7.44424C4.66465 8.10183 4.65499 9.61909 4.66865 10.4206Z" fill="#E5AC00"/>
<path d="M4.6702 2.68007V7.46072L7.74572 3.3591C7.74641 3.2737 7.74739 3.01768 7.74572 2.67683C7.74363 2.25077 7.11799 1.41634 6.1775 1.41724C5.22733 1.41815 4.6702 2.23371 4.6702 2.68007Z" fill="#D73B29"/>
<circle cx="9.63205" cy="5.21863" r="1.63019" fill="#3776E0"/>
</g>
<defs>
<clipPath id="clip0_389_9359">
<rect width="16" height="16" fill="white"/>
</clipPath>
</defs>
</svg>
